<?xml version="1.0" encoding="UTF-8"?>
<!DOCTYPE svg PUBLIC "-//W3C//DTD SVG 1.1//EN" "http://www.w3.org/Graphics/SVG/1.1/DTD/svg11.dtd">
<!-- Creator: CorelDRAW 2019 (64-Bit) -->
<svg xmlns="http://www.w3.org/2000/svg" xml:space="preserve" width="114.739mm" height="40.1614mm" version="1.1" style="shape-rendering:geometricPrecision; text-rendering:geometricPrecision; image-rendering:optimizeQuality; fill-rule:evenodd; clip-rule:evenodd"
viewBox="0 0 11473.88 4016.14"
 xmlns:xlink="http://www.w3.org/1999/xlink">
 <defs>
  <style type="text/css">
   <![CDATA[
    .fil4 {fill:#004DB1}
    .fil1 {fill:#0076D8}
    .fil0 {fill:#0092EE}
    .fil3 {fill:#00B1EF}
    .fil2 {fill:#00CCFF}
    .fil5 {fill:#0794DB}
    .fil7 {fill:white}
    .fil6 {fill:white;fill-rule:nonzero}
   ]]>
  </style>
 </defs>
 <g id="Layer_x0020_1">
  <metadata id="CorelCorpID_0Corel-Layer"/>
  <g id="_3411202384">
   <path class="fil0" d="M2919.64 274.65c-783.35,0 -1496.53,282.39 -2030.54,744.77 -176.41,-17.86 -348.02,-52 -513.28,-100.89 331.04,-345.54 871.66,-643.88 1585.35,-643.88l958.47 0z"/>
   <path class="fil1" d="M889.1 1019.42c534.01,-462.38 1247.19,-744.77 2030.54,-744.77 58.88,0 117.36,1.6 175.38,4.74 -502.99,468.13 -1177.45,754.48 -1918.78,754.48 -96.94,0 -192.74,-4.9 -287.14,-14.45z"/>
   <path class="fil2" d="M1176.24 1033.87c741.33,0 1415.79,-286.35 1918.78,-754.48 1.69,0.09 3.38,0.19 5.07,0.28 -4.52,537.46 -732.19,1383.3 -1529.83,1383.3l-181.94 0c-516.7,0 -1207,125.27 -1388.32,801.93l0 -14.26c138.57,-559.47 454.51,-1054.95 889.1,-1431.22 94.4,9.55 190.2,14.45 287.14,14.45z"/>
   <path class="fil3" d="M889.1 1019.42c-434.59,376.27 -750.53,871.75 -889.1,1431.22l0 -787.67c0,-205.78 130.24,-488.1 375.82,-744.44 165.26,48.89 336.87,83.03 513.28,100.89z"/>
   <path class="fil4" d="M860.14 3311.51c-435.02,-64.92 -779.43,-407.29 -847.39,-841.32 -4.26,-1.73 -8.5,-3.5 -12.75,-5.29l0 865.22 0 411.36c117.78,0 250.65,-35.08 386.34,-98.3 160.8,-74.9 325.55,-189.32 473.8,-331.67z"/>
   <path class="fil1" d="M1368.21 2632.7c-433.86,-184.41 -903.41,-502.21 -1363.33,-185.45 -1.48,1.03 -2.97,2.06 -4.47,3.1 -0.27,4.8 -0.41,9.65 -0.41,14.55 55.13,352.02 300.46,647.21 623.3,780.84 75.22,31.13 154.64,53.5 236.84,65.77 0,-462.33 220.28,-600.84 508.07,-678.81z"/>
   <path class="fil5" d="M4.88 2447.25c459.92,-316.76 929.47,1.04 1363.33,185.45 382.41,-103.62 884.03,-100.38 1146.6,-607.92 50.07,-133.27 98.15,-288.88 144.01,-469.85 -155.94,581.98 -2256.01,308.82 -2608.71,764.49 -10.27,13.26 -19.05,27.13 -26.26,41.67 -13.33,26.83 -21.28,55.89 -23.33,87.44 -0.04,0.61 -0.07,1.21 -0.11,1.82 1.5,-1.04 2.99,-2.07 4.47,-3.1z"/>
   <path class="fil3" d="M2514.81 2024.78c-262.57,507.54 -764.19,504.3 -1146.6,607.92 432.68,183.9 829.86,235.15 1146.6,-607.92z"/>
   <path class="fil6" d="M4711.97 338.04l204.05 0 0 -63.38 -476.74 0 0 63.38 204.07 0 0 544.46 68.62 0 0 -544.46zm765.87 3384.39l-300.06 -420.7c39.16,-10.58 74.89,-25.65 107.16,-45.24 32.28,-19.58 60.08,-43.39 83.34,-71.44 23.3,-28.05 41.54,-60.33 54.77,-96.83 13.24,-36.52 19.84,-78.06 19.84,-124.62 0,-53.98 -9.51,-102.94 -28.55,-146.85 -19.06,-43.92 -46.32,-80.97 -81.77,-111.13 -35.45,-30.16 -78.85,-53.44 -130.18,-69.85 -51.33,-16.41 -108.75,-24.61 -172.25,-24.61l-495.31 0 0 1111.27 193.69 0 0 -387.36 245.26 0 273.85 387.36 230.21 0zm-233.38 -748.52c0,57.42 -20.63,103.19 -62.17,137.06 -41.29,34.13 -97.11,51.06 -167.22,51.06l-286.55 0 0 -374.66 284.96 0c73.28,0 130.17,15.62 170.39,47.1 40.47,31.22 60.59,77.8 60.59,139.44zm1551 191.29c0,-78.31 -14.29,-152.4 -42.86,-222.24 -28.58,-69.86 -68.27,-130.72 -119.07,-182.57 -50.8,-51.87 -111.64,-92.87 -182.57,-123.03 -70.9,-30.17 -149.21,-45.25 -234.95,-45.25 -85.71,0 -164.04,15.34 -234.94,46.04 -70.9,30.69 -132.29,72.23 -184.15,124.62 -51.86,52.38 -92.09,113.51 -120.65,183.36 -28.57,69.86 -42.87,143.93 -42.87,222.26 0,78.31 14.3,152.4 42.87,222.24 28.56,69.86 68.27,130.72 119.07,182.57 50.79,51.87 111.64,92.87 182.57,123.03 70.88,30.17 149.19,45.25 234.93,45.25 85.72,0 164.04,-15.34 234.96,-46.03 70.89,-30.7 132.29,-72.24 184.15,-124.63 51.87,-52.38 92.07,-113.51 120.65,-183.36 28.57,-69.84 42.86,-143.93 42.86,-222.26zm-204.8 3.19c0,53.97 -9.25,105.04 -27.77,153.18 -18.51,48.16 -44.2,89.96 -76.99,125.42 -32.82,35.46 -72.25,63.51 -118.28,84.15 -46.03,20.63 -96.58,30.95 -151.61,30.95 -55.03,0 -105.84,-10.58 -152.4,-31.75 -46.57,-21.17 -86.5,-49.75 -119.85,-85.73 -33.34,-35.98 -59.27,-78.05 -77.79,-126.21 -18.51,-48.15 -27.77,-99.22 -27.77,-153.2 0,-53.97 9.26,-105.03 27.77,-153.19 18.52,-48.15 44.2,-89.95 76.99,-125.41 32.82,-35.46 72.24,-63.51 118.28,-84.15 46.02,-20.63 96.58,-30.95 151.6,-30.95 55.04,0 105.84,10.59 152.4,31.75 46.57,21.17 86.52,49.75 119.87,85.73 33.33,35.98 59.27,78.05 77.78,126.21 18.52,48.15 27.77,99.22 27.77,153.2zm1374.81 -557.23l-193.67 0 0 639.77c0,102.67 -25.14,179.92 -75.16,231.79 -50.01,51.85 -118.53,77.78 -205.84,77.78 -88.38,0 -157.44,-26.98 -207.44,-80.96 -50.01,-53.97 -75.13,-132.82 -75.13,-236.54l0 -631.84 -193.69 0 0 639.77c0,80.43 11.12,151.08 33.35,211.93 22.22,60.86 53.97,111.93 95.25,153.2 41.27,41.28 91,72.23 149.22,92.87 58.21,20.64 123.3,30.97 195.26,30.97 73.02,0 138.92,-10.33 197.65,-30.97 58.74,-20.64 108.74,-51.85 150.03,-93.65 41.26,-41.82 73.29,-93.93 96.04,-156.38 22.75,-62.45 34.13,-134.94 34.13,-217.5l0 -630.24zm738.2 180.98l352.42 0 0 -180.98 -901.71 0 0 180.98 352.44 0 0 930.29 196.85 0 0 -930.29zm1381.12 -180.98l-822.32 0 0 1111.27 830.27 0 0 -176.21 -636.6 0 0 -296.88 557.22 0 0 -176.21 -557.22 0 0 -285.76 628.65 0 0 -176.21zm-4724.44 -1464.29l-825.52 0 0 1111.26 193.69 0 0 -452.43 560.39 0 0 -176.22 -560.39 0 0 -306.4 631.83 0 0 -176.21zm1319.21 554.05c0,-78.32 -14.28,-152.41 -42.85,-222.25 -28.58,-69.86 -68.26,-130.71 -119.07,-182.57 -50.79,-51.86 -111.64,-92.87 -182.56,-123.03 -70.92,-30.17 -149.22,-45.25 -234.95,-45.25 -85.72,0 -164.05,15.34 -234.94,46.05 -70.92,30.69 -132.31,72.23 -184.16,124.62 -51.87,52.38 -92.09,113.5 -120.65,183.35 -28.59,69.86 -42.87,143.94 -42.87,222.26 0,78.31 14.28,152.4 42.87,222.25 28.56,69.85 68.25,130.7 119.07,182.55 50.78,51.87 111.65,92.87 182.55,123.04 70.92,30.16 149.22,45.25 234.94,45.25 85.74,0 164.05,-15.35 234.97,-46.04 70.9,-30.7 132.28,-72.24 184.15,-124.63 51.85,-52.38 92.07,-113.5 120.65,-183.35 28.57,-69.84 42.85,-143.93 42.85,-222.25zm-204.78 3.18c0,53.97 -9.26,105.04 -27.78,153.19 -18.53,48.15 -44.19,89.96 -76.99,125.42 -32.82,35.45 -72.25,63.49 -118.28,84.13 -46.03,20.64 -96.57,30.95 -151.6,30.95 -55.04,0 -105.84,-10.58 -152.39,-31.75 -46.57,-21.16 -86.53,-49.74 -119.87,-85.72 -33.33,-35.98 -59.26,-78.05 -77.78,-126.2 -18.54,-48.16 -27.79,-99.23 -27.79,-153.2 0,-53.98 9.25,-105.04 27.79,-153.19 18.52,-48.16 44.18,-89.96 76.99,-125.42 32.8,-35.46 72.23,-63.5 118.28,-84.14 46.03,-20.64 96.55,-30.96 151.58,-30.96 55.04,0 105.84,10.59 152.4,31.76 46.57,21.16 86.53,49.74 119.86,85.72 33.35,35.99 59.27,78.05 77.8,126.21 18.52,48.16 27.78,99.22 27.78,153.2zm1384.32 554.03l-300.04 -420.68c39.16,-10.59 74.87,-25.66 107.16,-45.25 32.29,-19.58 60.06,-43.39 83.34,-71.43 23.28,-28.06 41.54,-60.33 54.78,-96.84 13.23,-36.52 19.84,-78.06 19.84,-124.62 0,-53.98 -9.54,-102.93 -28.58,-146.85 -19.05,-43.92 -46.3,-80.97 -81.75,-111.13 -35.47,-30.16 -78.84,-53.44 -130.18,-69.85 -51.34,-16.4 -108.74,-24.61 -172.25,-24.61l-495.31 0 0 1111.26 193.67 0 0 -387.35 245.28 0 273.85 387.35 230.19 0zm-233.36 -748.51c0,57.42 -20.65,103.2 -62.19,137.06 -41.27,34.13 -97.09,51.06 -167.22,51.06l-286.55 0 0 -374.66 284.97 0c73.29,0 130.18,15.62 170.4,47.1 40.47,31.23 60.59,77.8 60.59,139.44zm1336.68 -48.42l0 796.93 193.69 0 0 -1111.26 -207.97 0 -338.13 525.48 -338.16 -525.48 -207.96 0 0 1111.26 193.67 0 0 -793.75 347.67 520.71 6.35 0 350.84 -523.89zm1054.12 -322.27l-180.97 0 -488.96 1119.2 200.04 0 114.31 -268.28 525.45 0 112.71 268.28 206.39 0 -488.97 -1119.2zm98.43 677.88l-382.58 0 190.5 -444.51 192.08 444.51zm581.03 441.32l777.89 0 0 -176.21 -584.22 0 0 -935.05 -193.67 0 0 1111.26zm-5231.17 -1649.16l0 273.53 68.6 0 0 -607.84 -68.6 0 0 270.05 -350.82 0 0 -270.05 -68.59 0 0 607.84 68.59 0 0 -273.53 350.82 0zm679.92 -334.31l-439.39 0 0 607.84 443.73 0 0 -62.52 -375.12 0 0 -212.75 331.71 0 0 -62.52 -331.71 0 0 -207.53 370.78 0 0 -62.52z"/>
   <polygon class="fil7" points="3700.24,0 3798.35,0 3798.35,4016.14 3700.24,4016.14 "/>
  </g>
 </g>
</svg>
