<svg width="30" height="30" viewBox="0 0 30 30" fill="none" xmlns="http://www.w3.org/2000/svg">
<g opacity="0.45">
<path fill-rule="evenodd" clip-rule="evenodd" d="M28.125 15C28.125 14.7513 28.0262 14.5129 27.8504 14.3371C27.6746 14.1612 27.4361 14.0625 27.1875 14.0625H5.07562L10.9762 8.16371C11.1523 7.98768 11.2512 7.74892 11.2512 7.49996C11.2512 7.25101 11.1523 7.01225 10.9762 6.83621C10.8002 6.66018 10.5615 6.56128 10.3125 6.56128C10.0635 6.56128 9.82479 6.66018 9.64875 6.83621L2.14875 14.3362C2.06144 14.4233 1.99217 14.5268 1.94491 14.6407C1.89765 14.7545 1.87332 14.8766 1.87332 15C1.87332 15.1233 1.89765 15.2454 1.94491 15.3593C1.99217 15.4732 2.06144 15.5766 2.14875 15.6637L9.64875 23.1637C9.82479 23.3398 10.0635 23.4386 10.3125 23.4386C10.5615 23.4386 10.8002 23.3398 10.9762 23.1637C11.1523 22.9877 11.2512 22.7489 11.2512 22.5C11.2512 22.251 11.1523 22.0123 10.9762 21.8362L5.07562 15.9375H27.1875C27.4361 15.9375 27.6746 15.8387 27.8504 15.6629C28.0262 15.4871 28.125 15.2486 28.125 15Z" fill="#0076D8"/>
<path fill-rule="evenodd" clip-rule="evenodd" d="M28.125 15C28.125 14.7513 28.0262 14.5129 27.8504 14.3371C27.6746 14.1612 27.4361 14.0625 27.1875 14.0625H5.07562L10.9762 8.16371C11.1523 7.98768 11.2512 7.74892 11.2512 7.49996C11.2512 7.25101 11.1523 7.01225 10.9762 6.83621C10.8002 6.66018 10.5615 6.56128 10.3125 6.56128C10.0635 6.56128 9.82479 6.66018 9.64875 6.83621L2.14875 14.3362C2.06144 14.4233 1.99217 14.5268 1.94491 14.6407C1.89765 14.7545 1.87332 14.8766 1.87332 15C1.87332 15.1233 1.89765 15.2454 1.94491 15.3593C1.99217 15.4732 2.06144 15.5766 2.14875 15.6637L9.64875 23.1637C9.82479 23.3398 10.0635 23.4386 10.3125 23.4386C10.5615 23.4386 10.8002 23.3398 10.9762 23.1637C11.1523 22.9877 11.2512 22.7489 11.2512 22.5C11.2512 22.251 11.1523 22.0123 10.9762 21.8362L5.07562 15.9375H27.1875C27.4361 15.9375 27.6746 15.8387 27.8504 15.6629C28.0262 15.4871 28.125 15.2486 28.125 15Z" fill="white"/>
</g>
</svg>
