<svg width="40" height="40" viewBox="0 0 40 40" fill="none" xmlns="http://www.w3.org/2000/svg">
<path fill-rule="evenodd" clip-rule="evenodd" d="M3.88243 16.94C4.03096 16.6443 4.2907 16.4195 4.60469 16.315C4.91868 16.2105 5.2613 16.2348 5.55743 16.3825L19.9999 23.6L34.4399 16.38C34.5868 16.305 34.7471 16.2597 34.9116 16.2469C35.0761 16.2341 35.2415 16.254 35.3982 16.3054C35.555 16.3569 35.7 16.4388 35.8249 16.5465C35.9498 16.6543 36.0522 16.7857 36.1261 16.9331C36.2 17.0806 36.244 17.2413 36.2555 17.4059C36.2671 17.5704 36.2459 17.7356 36.1933 17.892C36.1406 18.0483 36.0576 18.1927 35.9489 18.3168C35.8402 18.4409 35.708 18.5422 35.5599 18.615L20.5599 26.115C20.3861 26.2021 20.1944 26.2475 19.9999 26.2475C19.8055 26.2475 19.6138 26.2021 19.4399 26.115L4.43993 18.615C4.14421 18.4665 3.91945 18.2067 3.81495 17.8927C3.71044 17.5787 3.73471 17.2361 3.88243 16.94Z" fill="white"/>
</svg>
