<svg width="26" height="26" viewBox="0 0 26 26" fill="none" xmlns="http://www.w3.org/2000/svg">
<path fill-rule="evenodd" clip-rule="evenodd" d="M1.625 13C1.625 12.7846 1.7106 12.5779 1.86298 12.4255C2.01535 12.2732 2.22201 12.1875 2.4375 12.1875H21.6011L16.4873 7.0753C16.3347 6.92273 16.249 6.71581 16.249 6.50005C16.249 6.28429 16.3347 6.07737 16.4873 5.9248C16.6398 5.77223 16.8467 5.68652 17.0625 5.68652C17.2783 5.68652 17.4852 5.77223 17.6378 5.9248L24.1378 12.4248C24.2134 12.5003 24.2734 12.5899 24.3144 12.6886C24.3554 12.7874 24.3765 12.8932 24.3765 13C24.3765 13.1069 24.3554 13.2127 24.3144 13.3115C24.2734 13.4102 24.2134 13.4998 24.1378 13.5753L17.6378 20.0753C17.4852 20.2279 17.2783 20.3136 17.0625 20.3136C16.8467 20.3136 16.6398 20.2279 16.4873 20.0753C16.3347 19.9227 16.249 19.7158 16.249 19.5C16.249 19.2843 16.3347 19.0774 16.4873 18.9248L21.6011 13.8125H2.4375C2.22201 13.8125 2.01535 13.7269 1.86298 13.5746C1.7106 13.4222 1.625 13.2155 1.625 13Z" fill="white"/>
</svg>
