<svg width="26" height="26" viewBox="0 0 26 26" fill="none" xmlns="http://www.w3.org/2000/svg">
<path fill-rule="evenodd" clip-rule="evenodd" d="M12.4248 17.6377C12.5003 17.7134 12.5899 17.7734 12.6886 17.8144C12.7874 17.8554 12.8932 17.8765 13.0001 17.8765C13.1069 17.8765 13.2127 17.8554 13.3115 17.8144C13.4102 17.7734 13.4998 17.7134 13.5753 17.6377L16.8253 14.3877C16.9008 14.3122 16.9608 14.2225 17.0017 14.1238C17.0425 14.0251 17.0636 13.9193 17.0636 13.8125C17.0636 13.7057 17.0425 13.5999 17.0017 13.5012C16.9608 13.4025 16.9008 13.3128 16.8253 13.2372C16.7498 13.1617 16.6601 13.1018 16.5614 13.0609C16.4627 13.02 16.3569 12.999 16.2501 12.999C16.1432 12.999 16.0374 13.02 15.9387 13.0609C15.84 13.1018 15.7503 13.1617 15.6748 13.2372L13.8126 15.1011V8.9375C13.8126 8.72201 13.7269 8.51535 13.5746 8.36298C13.4222 8.2106 13.2155 8.125 13.0001 8.125C12.7846 8.125 12.5779 8.2106 12.4255 8.36298C12.2732 8.51535 12.1876 8.72201 12.1876 8.9375V15.1011L10.3253 13.2372C10.1727 13.0847 9.96581 12.999 9.75005 12.999C9.53429 12.999 9.32737 13.0847 9.1748 13.2372C9.02223 13.3898 8.93652 13.5967 8.93652 13.8125C8.93652 14.0283 9.02223 14.2352 9.1748 14.3877L12.4248 17.6377Z" fill="white"/>
<path d="M7.15975 5.43075C8.78391 4.03022 10.8554 3.25673 13 3.25C17.3713 3.25 20.9999 6.5 21.3948 10.6909C23.9818 11.0565 26 13.2226 26 15.8811C26 18.7996 23.5658 21.125 20.6164 21.125H6.14412C2.7755 21.125 0 18.4697 0 15.1417C0 12.2769 2.05725 9.90438 4.78075 9.30312C5.01312 7.90075 5.915 6.50325 7.15975 5.43075ZM8.22087 6.66087C6.99075 7.722 6.34725 9.00088 6.34725 10.0019V10.7299L5.62413 10.8095C3.354 11.0581 1.625 12.922 1.625 15.1417C1.625 17.5256 3.62375 19.5 6.14412 19.5H20.6164C22.7175 19.5 24.375 17.8555 24.375 15.8811C24.375 13.9051 22.7175 12.2606 20.6164 12.2606H19.8039V11.4481C19.8055 7.84063 16.783 4.875 13 4.875C11.2448 4.88201 9.54987 5.51595 8.22087 6.6625V6.66087Z" fill="white"/>
</svg>
