<svg width="26" height="26" viewBox="0 0 26 26" fill="none" xmlns="http://www.w3.org/2000/svg">
<path d="M10.3253 8.9375H6.5C5.20707 8.9375 3.96709 9.45111 3.05285 10.3654C2.13861 11.2796 1.625 12.5196 1.625 13.8125C1.625 15.1054 2.13861 16.3454 3.05285 17.2596C3.96709 18.1739 5.20707 18.6875 6.5 18.6875H11.375C12.1551 18.6879 12.924 18.5011 13.6169 18.1427C14.3098 17.7844 14.9067 17.265 15.3572 16.6281C15.8078 15.9913 16.099 15.2556 16.2062 14.4829C16.3135 13.7102 16.2338 12.923 15.9738 12.1875H14.625C14.4853 12.1875 14.3488 12.2037 14.2188 12.2379C14.4928 12.7327 14.633 13.2905 14.6254 13.8561C14.6178 14.4217 14.4627 14.9755 14.1755 15.4628C13.8883 15.9501 13.4789 16.354 12.9877 16.6345C12.4965 16.9151 11.9406 17.0626 11.375 17.0625H6.5C5.63805 17.0625 4.8114 16.7201 4.2019 16.1106C3.59241 15.5011 3.25 14.6745 3.25 13.8125C3.25 12.9505 3.59241 12.1239 4.2019 11.5144C4.8114 10.9049 5.63805 10.5625 6.5 10.5625H8.99438C9.34863 9.9515 9.79875 9.40225 10.3269 8.9375H10.3253Z" fill="white"/>
<path d="M14.6246 8.9375C13.8445 8.93709 13.0757 9.12391 12.3827 9.48226C11.6898 9.84061 11.093 10.36 10.6424 10.9969C10.1918 11.6337 9.90066 12.3694 9.79339 13.1421C9.68611 13.9148 9.76584 14.702 10.0259 15.4375H11.8101C11.5249 14.9434 11.3747 14.383 11.3747 13.8125C11.3747 13.242 11.5249 12.6816 11.8101 12.1875C12.0953 11.6935 12.5056 11.2832 12.9997 10.9979C13.4937 10.7127 14.0541 10.5625 14.6246 10.5625H19.4996C20.3616 10.5625 21.1882 10.9049 21.7977 11.5144C22.4072 12.1239 22.7496 12.9505 22.7496 13.8125C22.7496 14.6745 22.4072 15.5011 21.7977 16.1106C21.1882 16.7201 20.3616 17.0625 19.4996 17.0625H17.0053C16.6517 17.6725 16.2017 18.2213 15.6728 18.6875H19.4996C20.1398 18.6875 20.7737 18.5614 21.3652 18.3164C21.9567 18.0714 22.4941 17.7123 22.9468 17.2596C23.3995 16.807 23.7585 16.2695 24.0035 15.6781C24.2485 15.0866 24.3746 14.4527 24.3746 13.8125C24.3746 13.1723 24.2485 12.5384 24.0035 11.9469C23.7585 11.3555 23.3995 10.818 22.9468 10.3654C22.4941 9.91267 21.9567 9.55358 21.3652 9.30859C20.7737 9.0636 20.1398 8.9375 19.4996 8.9375H14.6246Z" fill="white"/>
</svg>
